<svg width="156" height="36" viewBox="0 0 156 36" fill="none" xmlns="http://www.w3.org/2000/svg">
<g clip-path="url(#clip0_233_343)">
<path d="M13.025 32C12.1941 32 11.5195 31.3197 11.5195 30.4855V12.6453C11.5195 11.8094 12.1941 11.1308 13.025 11.1308H16.9146C17.8228 11.1308 18.5599 10.3892 18.5599 9.47553V5.51454C18.5599 4.67865 19.2345 4 20.0653 4H33.0157C33.8449 4 34.5212 4.67865 34.5212 5.51454V16.358C34.5212 17.1922 33.8466 17.8725 33.0157 17.8725H29.1262C28.2179 17.8725 27.4808 18.6141 27.4808 19.5278V23.4408C27.4808 24.275 26.8062 24.9553 25.9754 24.9553H20.2052C19.297 24.9553 18.5599 25.6969 18.5599 26.6105V30.4855C18.5599 31.3197 17.8853 32 17.0544 32H13.025ZM20.2052 11.0828C19.297 11.0828 18.5599 11.8243 18.5599 12.738V16.2173C18.5599 17.131 19.297 17.8725 20.2052 17.8725H25.8355C26.7437 17.8725 27.4808 17.131 27.4808 16.2173V12.738C27.4808 11.8243 26.7437 11.0828 25.8355 11.0828H20.2052Z" fill="#D548EC"/>
</g>
<path d="M49.4524 11.625C49.1245 11.572 48.6815 11.5547 48.4338 11.5547H43.4532C43.2916 11.5547 43.1602 11.6849 43.1602 11.8451V24.1275C43.1602 24.2877 43.2916 24.4179 43.4532 24.4179H45.0033C45.1649 24.4179 45.2963 24.2877 45.2963 24.1275V20.0603C45.2963 19.9001 45.4277 19.7698 45.5894 19.7698H48.4338C48.664 19.7698 49.1245 19.7525 49.4524 19.6995C51.6503 19.3664 52.705 17.7448 52.705 15.6669C52.705 13.5889 51.6677 11.9673 49.4524 11.625ZM49.1513 17.7091C48.9036 17.7794 48.5838 17.7967 48.3454 17.7967H45.5894C45.4277 17.7967 45.2963 17.6665 45.2963 17.5063V13.8263C45.2963 13.6661 45.4277 13.5359 45.5894 13.5359H48.3454C48.5849 13.5359 48.9036 13.5531 49.1513 13.6142C50.2141 13.8862 50.5513 14.859 50.5513 15.6657C50.5513 16.4725 50.2141 17.4452 49.1513 17.708V17.7091Z" fill="#17181B"/>
<path d="M73.0157 17.1438L70.7295 16.5123C69.8701 16.2841 68.8864 15.9429 68.8864 15.0048C68.8864 14.0666 70.0027 13.3659 71.2795 13.3912C72.5087 13.4235 73.6216 14.0816 73.982 15.2606C74.0239 15.3989 74.1681 15.4819 74.3123 15.4577L76.0217 15.1638C76.1938 15.1339 76.3031 14.961 76.2531 14.795C75.6019 12.6502 73.8088 11.4435 71.3051 11.4181C68.7084 11.4009 66.6443 12.6721 66.6443 15.1085C66.6443 17.3352 68.3549 18.0105 69.4887 18.3344L72.7855 19.299C73.7518 19.5883 74.203 20.0528 74.203 20.7547C74.203 21.921 72.9273 22.5699 71.5621 22.5699C70.1039 22.5699 68.8759 21.8092 68.4317 20.4585C68.3875 20.3225 68.2514 20.2372 68.1096 20.2579L66.449 20.508C66.2827 20.5334 66.1699 20.6936 66.2059 20.8561C66.7211 23.1565 68.7538 24.5511 71.4296 24.5511C74.1053 24.5511 76.4369 23.236 76.4369 20.6152C76.4369 17.9944 74.2565 17.4769 73.0169 17.1438H73.0157Z" fill="#17181B"/>
<path d="M64.4499 11.632H62.8858C62.7242 11.632 62.5928 11.7622 62.5928 11.9224V21.8133C62.5928 21.9194 62.5509 22.0208 62.4753 22.0957C62.3998 22.1706 62.2974 22.2121 62.1904 22.2121H57.0017C56.8947 22.2121 56.7924 22.1706 56.7168 22.0957C56.6412 22.0208 56.5994 21.9194 56.5994 21.8133V11.9213C56.5994 11.7611 56.468 11.6309 56.3063 11.6309H54.7423C54.5806 11.6309 54.4492 11.7611 54.4492 11.9213V21.9217C54.4492 22.0819 54.5806 22.2121 54.7423 22.2121H56.1958C56.3028 22.2121 56.4052 22.2536 56.4807 22.3285C56.5563 22.4034 56.5982 22.5048 56.5982 22.6109V24.0515C56.5982 24.2117 56.7296 24.342 56.8912 24.342H62.2997C62.4614 24.342 62.5928 24.2117 62.5928 24.0515V22.6109C62.5928 22.5048 62.6347 22.4034 62.7102 22.3285C62.7858 22.2536 62.8882 22.2121 62.9951 22.2121H64.4487C64.6104 22.2121 64.7418 22.0819 64.7418 21.9217V11.9213C64.7418 11.7611 64.6104 11.6309 64.4487 11.6309L64.4499 11.632Z" fill="#17181B"/>
<path d="M88.3713 11.6738H86.8293C86.6677 11.6738 86.5362 11.8041 86.5362 11.9643V16.6965C86.5362 16.8567 86.4048 16.9869 86.2432 16.9869H80.7847C80.6231 16.9869 80.4917 16.8567 80.4917 16.6965V11.9643C80.4917 11.8041 80.3603 11.6738 80.1986 11.6738H78.6485C78.4869 11.6738 78.3555 11.8041 78.3555 11.9643V24.008C78.3555 24.1682 78.4869 24.2985 78.6485 24.2985H80.1986C80.3603 24.2985 80.4917 24.1682 80.4917 24.008V19.2585C80.4917 19.0983 80.6231 18.9681 80.7847 18.9681H86.2432C86.4048 18.9681 86.5362 19.0983 86.5362 19.2585V24.008C86.5362 24.1682 86.6677 24.2985 86.8293 24.2985H88.3713C88.5329 24.2985 88.6643 24.1682 88.6643 24.008V11.9643C88.6643 11.8041 88.5329 11.6738 88.3713 11.6738Z" fill="#17181B"/>
<path d="M99.4454 12.907C101.592 12.907 102.926 14.0722 103.448 15.945L105.047 15.5244C104.322 13.02 102.387 11.418 99.4454 11.418C95.637 11.418 93.5078 14.0976 93.5078 17.985C93.5078 21.8724 95.637 24.552 99.4454 24.552C102.387 24.552 104.322 22.95 105.047 20.4456L103.448 20.025C102.927 21.8989 101.592 23.063 99.4454 23.063C96.601 23.063 95.1521 21.0057 95.1695 17.9838C95.187 14.9631 96.601 12.9047 99.4454 12.9047V12.907Z" fill="#17181B"/>
<path d="M114.992 17.4613H108.295V11.9004H106.723V24.5101H108.295V18.9411H114.992V24.5101H116.565V11.9004H114.992V17.4613Z" fill="#17181B"/>
<path d="M123.451 11.8711L125.675 19.4062L121.228 19.4085L123.451 11.8711H121.935L118.098 24.4808H119.733L120.827 20.8734H126.084L127.172 24.4808H128.805L124.956 11.8711H123.451Z" fill="#17181B"/>
<path d="M131.713 11.9629H130.141V24.5714H131.713V11.9629Z" fill="#17181B"/>
<path d="M142.381 11.9727V21.8244L135.747 11.9727H134.156V24.5823H135.747V14.7226L142.381 24.5823H143.972V11.9727H142.381Z" fill="#17181B"/>
<defs>
<clipPath id="clip0_233_343">
<rect width="23" height="28" fill="white" transform="translate(11.5195 4)"/>
</clipPath>
</defs>
</svg>
