<svg width="206" height="213" viewBox="0 0 206 213" fill="none" xmlns="http://www.w3.org/2000/svg">
<rect width="206" height="213" fill="#E0E3E7"/>
<g id="Push Core New Landing">
<path d="M-1012.54 -4622.24C-1012.54 -4639.92 -998.216 -4654.24 -980.543 -4654.24H395.457C413.13 -4654.24 427.457 -4639.92 427.457 -4622.24V6648.76C427.457 6666.43 413.13 6680.76 395.457 6680.76H-980.543C-998.216 6680.76 -1012.54 6666.43 -1012.54 6648.76V-4622.24Z" fill="#090909"/>
<g id="Frame 37246">
<g id="Frame 37245">
<g id="Frame 37244">
<g id="Frame 37242">
<g id="Frame 37228">
<path d="M-89.1777 -8.00001C-89.1777 -21.2548 -78.4326 -32 -65.1777 -32H270.822C284.077 -32 294.822 -21.2548 294.822 -8V432.069C294.822 445.324 284.077 456.069 270.822 456.069H-65.1777C-78.4326 456.069 -89.1777 445.324 -89.1777 432.069V-8.00001Z" fill="#090909"/>
<path d="M270.822 -32.5C284.353 -32.5 295.322 -21.531 295.322 -8V432.069C295.322 445.6 284.353 456.569 270.822 456.569H-65.1777C-78.7086 456.569 -89.6775 445.6 -89.6777 432.069V-8C-89.6777 -21.531 -78.7087 -32.5 -65.1777 -32.5H270.822Z" stroke="url(#paint0_linear_48907_701)" stroke-opacity="0.25"/>
<g id="Frame 37188">
<g id="image 13 [Vectorized]">
<circle id="Vector" cx="130.351" cy="81.7001" r="3.78458" fill="#D77FEF"/>
<circle id="Vector_2" cx="130.35" cy="128.982" r="3.81272" fill="#FEFEFE"/>
<circle id="Vector_3" cx="83.0645" cy="128.986" r="3.81253" fill="#D77FEF"/>
<circle id="Vector_4" cx="83.0434" cy="81.5849" r="3.80902" fill="#FEFEFE"/>
<circle id="Vector_5" cx="150.412" cy="61.4819" r="3.21827" fill="#D77FEF"/>
<circle id="Vector_6" cx="150.546" cy="149.234" r="3.22936" fill="#FEFEFE"/>
<circle id="Vector_7" cx="62.9791" cy="61.4425" r="3.19399" fill="#FEFEFE"/>
<circle id="Vector_8" cx="62.9001" cy="149.276" r="3.17551" fill="#D77FEF"/>
<circle id="Vector_9" cx="74.5705" cy="170.017" r="2.883" fill="#D77FEF"/>
<circle id="Vector_10" cx="42.314" cy="170.04" r="2.84722" fill="#D77FEF"/>
<circle id="Vector_11" cx="42.0893" cy="137.574" r="2.79634" fill="#D77FEF"/>
<circle id="Vector_12" cx="171.324" cy="170.068" r="2.7131" fill="#FEFEFE"/>
<circle id="Vector_13" cx="74.4219" cy="40.5605" r="2.74414" fill="#FEFEFE"/>
<circle id="Vector_14" cx="171.297" cy="137.654" r="2.65468" fill="#FEFEFE"/>
<circle id="Vector_15" cx="138.967" cy="170.069" r="2.68917" fill="#FEFEFE"/>
<circle id="Vector_16" cx="42.0703" cy="40.477" r="2.71675" fill="#FEFEFE"/>
<circle id="Vector_17" cx="42.1017" cy="72.9952" r="2.70126" fill="#FEFEFE"/>
<circle id="Vector_18" cx="171.271" cy="72.9565" r="2.65814" fill="#D77FEF"/>
<circle id="Vector_19" cx="171.312" cy="40.4889" r="2.68124" fill="#D77FEF"/>
<circle id="Vector_20" cx="138.987" cy="40.5329" r="2.65306" fill="#D77FEF"/>
<circle id="Vector_21" cx="20.7229" cy="191.628" r="2.21312" fill="#D77FEF"/>
<circle id="Vector_22" cx="149.441" cy="191.68" r="2.22763" fill="#FEFEFE"/>
<circle id="Vector_23" cx="20.703" cy="148.43" r="2.19326" fill="#D77FEF"/>
<circle id="Vector_24" cx="20.6306" cy="62.2405" r="2.19899" fill="#FEFEFE"/>
<circle id="Vector_25" cx="63.6208" cy="191.662" r="2.15989" fill="#D77FEF"/>
<circle id="Vector_26" cx="20.6917" cy="18.6253" r="2.17025" fill="#FEFEFE"/>
<circle id="Vector_27" cx="149.785" cy="19.0581" r="2.18747" fill="#D77FEF"/>
<circle id="Vector_28" cx="63.6243" cy="18.7596" r="2.13995" fill="#FEFEFE"/>
<circle id="Vector_29" cx="192.657" cy="191.728" r="2.24892" fill="#FEFEFE"/>
<circle id="Vector_30" cx="192.547" cy="62.3224" r="2.38053" fill="#D77FEF"/>
<circle id="Vector_31" cx="192.596" cy="148.531" r="2.24616" fill="#FEFEFE"/>
<circle id="Vector_32" cx="192.587" cy="19.0702" r="2.20645" fill="#D77FEF"/>
<path id="Vector 327" d="M14.5645 105.134L198.86 105.134" stroke="white" stroke-linecap="round"/>
<path id="Vector 328" d="M106.746 9.99854L106.746 200.186" stroke="white" stroke-linecap="round"/>
<circle id="Vector_33" cx="106.745" cy="105.135" r="9.24496" fill="#D77FEF"/>
</g>
</g>
</g>
</g>
</g>
</g>
</g>
</g>
<defs>
<linearGradient id="paint0_linear_48907_701" x1="102.822" y1="-32" x2="102.822" y2="456.069" gradientUnits="userSpaceOnUse">
<stop stop-color="white"/>
<stop offset="1" stop-color="#ED8BFC"/>
</linearGradient>
</defs>
</svg>
