<svg width="524" height="212" viewBox="0 0 524 212" fill="none" xmlns="http://www.w3.org/2000/svg">
<rect width="524" height="212" fill="#E0E3E7"/>
<g id="Push Core New Landing">
<path d="M-751.365 -5142.49C-751.365 -5160.16 -737.038 -5174.49 -719.365 -5174.49H656.635C674.308 -5174.49 688.635 -5160.16 688.635 -5142.49V6128.51C688.635 6146.18 674.308 6160.51 656.635 6160.51H-719.365C-737.038 6160.51 -751.365 6146.18 -751.365 6128.51V-5142.49Z" fill="#090909"/>
<g id="Frame 37246">
<g id="Frame 37245">
<g id="Frame 37244">
<g id="Frame 37243">
<g id="Frame 37230">
<path d="M-32 -7.99998C-32 -21.2548 -21.2548 -32 -8 -32H532C545.255 -32 556 -21.2548 556 -8V345.511C556 358.766 545.255 369.511 532 369.511H-8.00001C-21.2548 369.511 -32 358.766 -32 345.511V-7.99998Z" fill="#090909"/>
<path d="M532 -32.5C545.531 -32.5 556.5 -21.531 556.5 -8V345.511C556.5 359.042 545.531 370.011 532 370.011H-8C-21.531 370.011 -32.5 359.042 -32.5 345.511V-8L-32.4922 -8.63281C-32.1565 -21.8713 -21.3194 -32.5 -8 -32.5H532Z" stroke="url(#paint0_linear_48907_701)" stroke-opacity="0.25"/>
<g id="Frame 37188">
<g id="Frame 4598">
<g id="Group 4506">
<circle id="Ellipse 41" cx="203.774" cy="18.7648" r="0.850263" fill="white"/>
<circle id="Ellipse 56" cx="203.774" cy="193.174" r="0.850263" fill="white"/>
<circle id="Ellipse 61" cx="203.774" cy="164.328" r="0.850263" fill="white"/>
<circle id="Ellipse 66" cx="204.165" cy="48.1107" r="1.3192" fill="white"/>
<circle id="Ellipse 58" cx="232.977" cy="193.175" r="1.50986" fill="white"/>
<circle id="Ellipse 59" cx="291.428" cy="193.175" r="1.50986" fill="white"/>
<circle id="Ellipse 42" cx="232.977" cy="18.7647" r="1.50986" fill="white"/>
<circle id="Ellipse 60" cx="261.635" cy="193.175" r="2.33629" fill="white"/>
<circle id="Ellipse 63" cx="232.977" cy="164.328" r="1.50986" fill="white"/>
<circle id="Ellipse 68" cx="232.977" cy="48.1104" r="1.50986" fill="white"/>
<circle id="Ellipse 44" cx="291.428" cy="18.7647" r="1.50986" fill="white"/>
<circle id="Ellipse 64" cx="291.428" cy="164.328" r="1.50986" fill="white"/>
<circle id="Ellipse 69" cx="291.428" cy="48.1104" r="1.50986" fill="white"/>
<circle id="Ellipse 43" cx="261.635" cy="18.765" r="2.33629" fill="white"/>
<circle id="Ellipse 65" cx="261.635" cy="164.328" r="2.33629" fill="white"/>
<circle id="Ellipse 70" cx="261.635" cy="48.1102" r="2.33629" fill="white"/>
<circle id="Ellipse 71" cx="203.017" cy="76.6288" r="2.27188" transform="rotate(90 203.017 76.6288)" fill="white"/>
<circle id="Ellipse 81" cx="202.695" cy="105.291" r="3.23487" transform="rotate(90 202.695 105.291)" fill="white"/>
<circle id="Ellipse 86" cx="322.756" cy="104.212" r="3.23487" transform="rotate(-90 322.756 104.212)" fill="white"/>
<circle id="Ellipse 74" cx="321.748" cy="75.8712" r="2.27188" transform="rotate(-90 321.748 75.8712)" fill="white"/>
<circle id="Ellipse 76" cx="203.017" cy="135.087" r="2.27188" transform="rotate(90 203.017 135.087)" fill="white"/>
<circle id="Ellipse 72" cx="231.804" cy="76.6283" r="3.51603" transform="rotate(90 231.804 76.6283)" fill="white"/>
<circle id="Ellipse 75" cx="292.52" cy="75.4561" r="3.51603" transform="rotate(-90 292.52 75.4561)" fill="white"/>
<circle id="Ellipse 77" cx="321.748" cy="134.33" r="2.27188" transform="rotate(-90 321.748 134.33)" fill="white"/>
<circle id="Ellipse 73" cx="260.215" cy="76.6282" r="4.26194" transform="rotate(90 260.215 76.6282)" fill="white"/>
<circle id="Ellipse 83" cx="231.402" cy="105.29" r="4.72701" transform="rotate(90 231.402 105.29)" fill="white"/>
<circle id="Ellipse 87" cx="293.528" cy="103.714" r="4.72701" transform="rotate(-90 293.528 103.714)" fill="white"/>
<circle id="Ellipse 78" cx="231.804" cy="135.087" r="3.51603" transform="rotate(90 231.804 135.087)" fill="white"/>
<circle id="Ellipse 113" cx="203.797" cy="193.175" r="1.50986" fill="white"/>
<circle id="Ellipse 114" cx="203.799" cy="18.7647" r="1.50986" fill="white"/>
<circle id="Ellipse 115" cx="203.799" cy="164.328" r="1.50986" fill="white"/>
<circle id="Ellipse 116" cx="203.797" cy="48.1104" r="1.50986" fill="white"/>
<circle id="Ellipse 117" cx="202.625" cy="76.6283" r="3.51603" transform="rotate(90 202.625 76.6283)" fill="white"/>
<circle id="Ellipse 118" cx="202.22" cy="105.29" r="4.72701" transform="rotate(90 202.22 105.29)" fill="white"/>
<circle id="Ellipse 119" cx="202.627" cy="135.087" r="3.51603" transform="rotate(90 202.627 135.087)" fill="white"/>
<circle id="Ellipse 79" cx="292.52" cy="133.915" r="3.51603" transform="rotate(-90 292.52 133.915)" fill="white"/>
<circle id="Ellipse 85" cx="260.215" cy="105.29" r="6.52686" transform="rotate(90 260.215 105.29)" fill="white"/>
<circle id="Ellipse 80" cx="260.215" cy="135.088" r="4.26194" transform="rotate(90 260.215 135.088)" fill="white"/>
<circle id="Ellipse 55" cx="173.791" cy="105.29" r="2.33629" transform="rotate(90 173.791 105.29)" fill="white"/>
<circle id="Ellipse 89" cx="172.876" cy="18.7648" r="0.850263" fill="white"/>
<circle id="Ellipse 90" cx="172.878" cy="193.174" r="0.850263" fill="white"/>
<circle id="Ellipse 91" cx="172.876" cy="164.328" r="0.850263" fill="white"/>
<circle id="Ellipse 92" cx="172.878" cy="48.1107" r="1.3192" fill="white"/>
<circle id="Ellipse 96" cx="172.877" cy="76.6288" r="2.27188" transform="rotate(90 172.877 76.6288)" fill="white"/>
<circle id="Ellipse 97" cx="172.876" cy="105.291" r="3.23487" transform="rotate(90 172.876 105.291)" fill="white"/>
<circle id="Ellipse 98" cx="172.877" cy="135.087" r="2.27188" transform="rotate(90 172.877 135.087)" fill="white"/>
<circle id="Ellipse 100" cx="143.97" cy="105.29" r="2.33629" transform="rotate(90 143.97 105.29)" fill="white"/>
<circle id="Ellipse 101" cx="143.096" cy="18.7648" r="0.850263" fill="white"/>
<circle id="Ellipse 102" cx="143.094" cy="193.174" r="0.850263" fill="white"/>
<circle id="Ellipse 103" cx="143.094" cy="164.328" r="0.850263" fill="white"/>
<circle id="Ellipse 104" cx="143.095" cy="48.1107" r="1.3192" fill="white"/>
<circle id="Ellipse 105" cx="114.673" cy="48.11" r="0.850263" transform="rotate(90 114.673 48.11)" fill="white"/>
<circle id="Ellipse 106" cx="114.675" cy="164.328" r="0.850263" transform="rotate(90 114.675 164.328)" fill="white"/>
<circle id="Ellipse 107" cx="114.457" cy="76.629" r="1.50986" transform="rotate(90 114.457 76.629)" fill="white"/>
<circle id="Ellipse 108" cx="143.095" cy="76.6288" r="2.27188" transform="rotate(90 143.095 76.6288)" fill="white"/>
<circle id="Ellipse 109" cx="143.093" cy="105.291" r="3.23487" transform="rotate(90 143.093 105.291)" fill="white"/>
<circle id="Ellipse 110" cx="143.095" cy="135.087" r="2.27188" transform="rotate(90 143.095 135.087)" fill="white"/>
<circle id="Ellipse 111" cx="114.459" cy="135.087" r="1.50986" transform="rotate(90 114.459 135.087)" fill="white"/>
<circle id="Ellipse 112" cx="114.179" cy="105.29" r="2.33629" transform="rotate(90 114.179 105.29)" fill="white"/>
<circle id="Ellipse 120" cx="87.4954" cy="48.11" r="0.850263" transform="rotate(90 87.4954 48.11)" fill="white"/>
<circle id="Ellipse 121" cx="87.4993" cy="164.328" r="0.850263" transform="rotate(90 87.4993 164.328)" fill="white"/>
<circle id="Ellipse 122" cx="87.2792" cy="76.629" r="1.50986" transform="rotate(90 87.2792 76.629)" fill="white"/>
<circle id="Ellipse 123" cx="87.2792" cy="135.087" r="1.50986" transform="rotate(90 87.2792 135.087)" fill="white"/>
<circle id="Ellipse 124" cx="87.0016" cy="105.29" r="2.33629" transform="rotate(90 87.0016 105.29)" fill="white"/>
<g id="Group 4598">
<circle id="Ellipse 125" cx="320.209" cy="17.5097" r="1.50986" transform="rotate(-180 320.209 17.5097)" fill="white"/>
<circle id="Ellipse 126" cx="320.205" cy="191.911" r="1.50986" transform="rotate(-180 320.205 191.911)" fill="white"/>
<circle id="Ellipse 127" cx="320.205" cy="46.3568" r="1.50986" transform="rotate(-180 320.205 46.3568)" fill="white"/>
<circle id="Ellipse 128" cx="320.209" cy="162.566" r="1.50986" transform="rotate(-180 320.209 162.566)" fill="white"/>
<circle id="Ellipse 129" cx="321.379" cy="134.045" r="3.51603" transform="rotate(-90 321.379 134.045)" fill="white"/>
<circle id="Ellipse 130" cx="321.784" cy="105.382" r="4.72701" transform="rotate(-90 321.784 105.382)" fill="white"/>
<circle id="Ellipse 131" cx="321.379" cy="75.5855" r="3.51603" transform="rotate(-90 321.379 75.5855)" fill="white"/>
<circle id="Ellipse 132" cx="351.128" cy="191.91" r="0.850263" transform="rotate(-180 351.128 191.91)" fill="white"/>
<circle id="Ellipse 133" cx="351.128" cy="17.5101" r="0.850263" transform="rotate(-180 351.128 17.5101)" fill="white"/>
<circle id="Ellipse 134" cx="351.128" cy="46.3563" r="0.850263" transform="rotate(-180 351.128 46.3563)" fill="white"/>
<circle id="Ellipse 135" cx="351.128" cy="162.566" r="2.38393" transform="rotate(-180 351.128 162.566)" fill="white"/>
<circle id="Ellipse 136" cx="351.127" cy="134.044" r="2.27188" transform="rotate(-90 351.127 134.044)" fill="white"/>
<circle id="Ellipse 137" cx="351.127" cy="105.382" r="3.23487" transform="rotate(-90 351.127 105.382)" fill="white"/>
<circle id="Ellipse 138" cx="351.127" cy="75.586" r="2.27188" transform="rotate(-90 351.127 75.586)" fill="white"/>
<circle id="Ellipse 139" cx="380.911" cy="191.91" r="0.850263" transform="rotate(-180 380.911 191.91)" fill="white"/>
<circle id="Ellipse 140" cx="380.911" cy="17.5101" r="0.850263" transform="rotate(-180 380.911 17.5101)" fill="white"/>
<circle id="Ellipse 141" cx="380.911" cy="46.3563" r="0.850263" transform="rotate(-180 380.911 46.3563)" fill="white"/>
<circle id="Ellipse 142" cx="380.911" cy="162.566" r="1.3192" transform="rotate(-180 380.911 162.566)" fill="white"/>
<circle id="Ellipse 143" cx="409.325" cy="162.565" r="0.850263" transform="rotate(-90 409.325 162.565)" fill="white"/>
<circle id="Ellipse 144" cx="409.323" cy="46.3568" r="0.850263" transform="rotate(-90 409.323 46.3568)" fill="white"/>
<circle id="Ellipse 145" cx="409.545" cy="134.044" r="1.50986" transform="rotate(-90 409.545 134.044)" fill="white"/>
<circle id="Ellipse 146" cx="380.911" cy="134.044" r="2.27188" transform="rotate(-90 380.911 134.044)" fill="white"/>
<circle id="Ellipse 147" cx="380.911" cy="105.383" r="3.23487" transform="rotate(-90 380.911 105.383)" fill="white"/>
<circle id="Ellipse 148" cx="380.911" cy="75.5855" r="2.27188" transform="rotate(-90 380.911 75.5855)" fill="white"/>
<circle id="Ellipse 149" cx="409.541" cy="75.5858" r="1.50986" transform="rotate(-90 409.541 75.5858)" fill="white"/>
<circle id="Ellipse 150" cx="409.819" cy="105.383" r="2.33629" transform="rotate(-90 409.819 105.383)" fill="white"/>
<circle id="Ellipse 151" cx="436.507" cy="162.565" r="0.850263" transform="rotate(-90 436.507 162.565)" fill="white"/>
<circle id="Ellipse 152" cx="436.505" cy="46.3568" r="0.850263" transform="rotate(-90 436.505 46.3568)" fill="white"/>
<circle id="Ellipse 153" cx="436.721" cy="134.044" r="1.50986" transform="rotate(-90 436.721 134.044)" fill="white"/>
<circle id="Ellipse 154" cx="436.723" cy="75.5858" r="1.50986" transform="rotate(-90 436.723 75.5858)" fill="white"/>
<circle id="Ellipse 155" cx="436.998" cy="105.382" r="2.33629" transform="rotate(-90 436.998 105.382)" fill="white"/>
</g>
<path id="Vector 315" d="M267.434 104.142L291.281 48.0616" stroke="white"/>
<path id="Vector 314" d="M266.828 104.75L321.635 75.7042" stroke="white"/>
<path id="Vector 316" d="M267.551 104.404L261.473 48.3325" stroke="white"/>
<path id="Vector 317" d="M380.968 104.031L267.744 104.03" stroke="white"/>
<path id="Vector 318" d="M266.86 104.586L233.02 48.0615" stroke="white"/>
<path id="Vector 319" d="M265.827 103.118L231.395 76.2461" stroke="white"/>
<path id="Vector 320" d="M265.572 104.37L143.637 104.37" stroke="white"/>
<path id="Vector 321" d="M266.102 105.201L231.395 135.054" stroke="white"/>
<path id="Vector 322" d="M266.101 104.722L233.019 164.323" stroke="white"/>
<path id="Vector 323" d="M265.618 104.722L261.471 164.594" stroke="white"/>
<path id="Vector 324" d="M291.553 164.322L266.299 104.71" stroke="white"/>
<path id="Vector 325" d="M351.484 162.083L266.65 104.584" stroke="white"/>
<circle id="Ellipse 88" cx="265.838" cy="103.87" r="9.26747" transform="rotate(90 265.838 103.87)" fill="#D77FEF"/>
</g>
</g>
</g>
</g>
</g>
</g>
</g>
</g>
</g>
<defs>
<linearGradient id="paint0_linear_48907_701" x1="262" y1="-32" x2="262" y2="369.511" gradientUnits="userSpaceOnUse">
<stop stop-color="white"/>
<stop offset="1" stop-color="#ED8BFC"/>
</linearGradient>
</defs>
</svg>
