<svg width="217" height="50" viewBox="0 0 217 50" fill="none" xmlns="http://www.w3.org/2000/svg">
<path d="M18.0946 44C16.9402 44 16 43.0742 16 41.9441V17.7295C16 16.5926 16.9402 15.6736 18.0946 15.6736H23.5075C24.7725 15.6736 25.7956 14.6661 25.7956 13.4271V8.05589C25.7956 6.91903 26.7358 6 27.8903 6H45.9054C47.0598 6 48 6.91903 48 8.05589V22.7739C48 23.904 47.0598 24.8298 45.9054 24.8298H40.4925C39.2275 24.8298 38.2044 25.8373 38.2044 27.0763V32.3862C38.2044 33.5163 37.2642 34.4421 36.1097 34.4421H28.0838C26.8188 34.4421 25.7956 35.4497 25.7956 36.6886V41.9441C25.7956 43.0742 24.8555 44 23.701 44H18.0946ZM28.0838 15.6123C26.8188 15.6123 25.7956 16.6198 25.7956 17.8588V22.5833C25.7956 23.8223 26.8188 24.8298 28.0838 24.8298H35.9162C37.1812 24.8298 38.2044 23.8223 38.2044 22.5833V17.8588C38.2044 16.6198 37.1812 15.6123 35.9162 15.6123H28.0838Z" fill="#D548EC"/>
<path d="M68.7393 16.1445C68.2838 16.0709 67.6685 16.0469 67.3245 16.0469H60.407C60.1825 16.0469 60 16.2278 60 16.4503V33.5091C60 33.7316 60.1825 33.9125 60.407 33.9125H62.5599C62.7844 33.9125 62.9669 33.7316 62.9669 33.5091V27.8602C62.9669 27.6377 63.1494 27.4568 63.3739 27.4568H67.3245C67.6442 27.4568 68.2838 27.4328 68.7393 27.3591C71.7918 26.8965 73.2567 24.6443 73.2567 21.7582C73.2567 18.8721 71.816 16.6199 68.7393 16.1445ZM68.321 24.5947C67.977 24.6923 67.5328 24.7164 67.2017 24.7164H63.3739C63.1494 24.7164 62.9669 24.5355 62.9669 24.313V19.2019C62.9669 18.9794 63.1494 18.7985 63.3739 18.7985H67.2017C67.5344 18.7985 67.977 18.8225 68.321 18.9074C69.7972 19.2851 70.2655 20.6361 70.2655 21.7566C70.2655 22.8771 69.7972 24.2281 68.321 24.5931V24.5947Z" fill="white"/>
<path d="M101.467 23.81L98.2921 22.9328C97.0985 22.6159 95.7321 22.1421 95.7321 20.8391C95.7321 19.5361 97.2826 18.5629 99.056 18.5981C100.763 18.6429 102.309 19.5569 102.809 21.1945C102.868 21.3865 103.068 21.5018 103.268 21.4682L105.642 21.06C105.881 21.0184 106.033 20.7783 105.964 20.5478C105.059 17.5688 102.569 15.8929 99.0915 15.8577C95.485 15.8337 92.6182 17.5992 92.6182 20.9832C92.6182 24.0757 94.994 25.0138 96.5688 25.4636L101.148 26.8034C102.49 27.2051 103.116 27.8502 103.116 28.8251C103.116 30.445 101.345 31.3462 99.4485 31.3462C97.4231 31.3462 95.7176 30.2897 95.1006 28.4137C95.0393 28.2248 94.8503 28.1063 94.6533 28.1352L92.3469 28.4825C92.1159 28.5177 91.9593 28.7402 92.0093 28.9659C92.7248 32.161 95.548 34.0978 99.2644 34.0978C102.981 34.0978 106.219 32.2714 106.219 28.6314C106.219 24.9913 103.191 24.2726 101.469 23.81H101.467Z" fill="white"/>
<path d="M89.5695 16.1539H87.3972C87.1727 16.1539 86.9902 16.3348 86.9902 16.5573V30.2947C86.9902 30.4419 86.9321 30.5828 86.8271 30.6868C86.7221 30.7909 86.58 30.8485 86.4314 30.8485H79.2248C79.0762 30.8485 78.9341 30.7909 78.8291 30.6868C78.7241 30.5828 78.666 30.4419 78.666 30.2947V16.5557C78.666 16.3332 78.4835 16.1523 78.259 16.1523H76.0867C75.8622 16.1523 75.6797 16.3332 75.6797 16.5557V30.4451C75.6797 30.6676 75.8622 30.8485 76.0867 30.8485H78.1056C78.2542 30.8485 78.3963 30.9061 78.5013 31.0102C78.6062 31.1142 78.6644 31.2551 78.6644 31.4024V33.4033C78.6644 33.6258 78.8469 33.8066 79.0714 33.8066H86.5832C86.8077 33.8066 86.9902 33.6258 86.9902 33.4033V31.4024C86.9902 31.2551 87.0483 31.1142 87.1533 31.0102C87.2583 30.9061 87.4004 30.8485 87.549 30.8485H89.5679C89.7924 30.8485 89.9749 30.6676 89.9749 30.4451V16.5557C89.9749 16.3332 89.7924 16.1523 89.5679 16.1523L89.5695 16.1539Z" fill="white"/>
<path d="M122.794 16.2129H120.652C120.428 16.2129 120.245 16.3938 120.245 16.6163V23.1888C120.245 23.4113 120.062 23.5922 119.838 23.5922H112.257C112.032 23.5922 111.85 23.4113 111.85 23.1888V16.6163C111.85 16.3938 111.667 16.2129 111.443 16.2129H109.29C109.065 16.2129 108.883 16.3938 108.883 16.6163V33.3438C108.883 33.5663 109.065 33.7471 109.29 33.7471H111.443C111.667 33.7471 111.85 33.5663 111.85 33.3438V26.7472C111.85 26.5247 112.032 26.3438 112.257 26.3438H119.838C120.062 26.3438 120.245 26.5247 120.245 26.7472V33.3438C120.245 33.5663 120.428 33.7471 120.652 33.7471H122.794C123.018 33.7471 123.201 33.5663 123.201 33.3438V16.6163C123.201 16.3938 123.018 16.2129 122.794 16.2129Z" fill="white"/>
<path d="M138.172 17.9255C141.154 17.9255 143.006 19.5439 143.732 22.145L145.952 21.5608C144.946 18.0824 142.259 15.8574 138.172 15.8574C132.883 15.8574 129.926 19.5791 129.926 24.9783C129.926 30.3775 132.883 34.0992 138.172 34.0992C142.259 34.0992 144.946 31.8742 145.952 28.3958L143.732 27.8116C143.008 30.4143 141.154 32.0311 138.172 32.0311C134.222 32.0311 132.21 29.1738 132.234 24.9767C132.258 20.7812 134.222 17.9223 138.172 17.9223V17.9255Z" fill="white"/>
<path d="M159.766 24.2528H150.465V16.5293H148.281V34.0427H150.465V26.3081H159.766V34.0427H161.951V16.5293H159.766V24.2528Z" fill="white"/>
<path d="M171.518 16.4863L174.606 26.9518L168.43 26.955L171.518 16.4863H169.412L164.082 33.9998H166.353L167.873 28.9895H175.175L176.685 33.9998H178.954L173.608 16.4863H171.518Z" fill="white"/>
<path d="M182.992 16.6152H180.809V34.1271H182.992V16.6152Z" fill="white"/>
<path d="M197.806 16.6289V30.3118L188.592 16.6289H186.383V34.1423H188.592V20.4482L197.806 34.1423H200.016V16.6289H197.806Z" fill="white"/>
</svg>
