<svg xmlns="http://www.w3.org/2000/svg" width="20" height="20" viewBox="0 0 20 20" fill="none">
  <path d="M10 0.5C10.3372 0.5 10.6113 0.774137 10.6113 1.11133C10.6114 5.68063 14.3194 9.38856 18.8887 9.38867C19.2259 9.38867 19.5 9.66281 19.5 10C19.5 10.3372 19.2259 10.6113 18.8887 10.6113C14.3194 10.6114 10.6114 14.3194 10.6113 18.8887C10.6113 19.2259 10.3372 19.5 10 19.5C9.66281 19.5 9.38867 19.2259 9.38867 18.8887C9.38856 14.3194 5.68063 10.6114 1.11133 10.6113C0.774137 10.6113 0.5 10.3372 0.5 10C0.5 9.66281 0.774137 9.38867 1.11133 9.38867C5.68063 9.38855 9.38855 5.68063 9.38867 1.11133C9.38867 0.774137 9.66281 0.5 10 0.5ZM9.55566 5.46484C8.64903 7.21616 7.21558 8.65074 5.46484 9.55566L4.60547 10L5.46484 10.4443C7.21577 11.3494 8.65064 12.7842 9.55566 14.5352L10 15.3936L10.4443 14.5352C11.351 12.7838 12.7844 11.3493 14.5352 10.4443L15.3936 10L14.5352 9.55566C12.7838 8.64903 11.3493 7.21558 10.4443 5.46484L10 4.60645L9.55566 5.46484Z" fill="white" stroke="white"/>
</svg>
