<svg width="24" height="25" viewBox="0 0 24 25" fill="none" xmlns="http://www.w3.org/2000/svg">
<path d="M12 3.13989C10.22 3.13989 8.47991 3.66773 6.99987 4.65667C5.51983 5.6456 4.36628 7.05121 3.68509 8.69574C3.0039 10.3403 2.82567 12.1499 3.17294 13.8957C3.5202 15.6415 4.37737 17.2452 5.63604 18.5039C6.89471 19.7625 8.49836 20.6197 10.2442 20.967C11.99 21.3142 13.7996 21.136 15.4442 20.4548C17.0887 19.7736 18.4943 18.6201 19.4832 17.14C20.4722 15.66 21 13.9199 21 12.1399C20.9975 9.75372 20.0485 7.46599 18.3612 5.77871C16.6739 4.09143 14.3862 3.14241 12 3.13989ZM11.6538 7.29374C11.8592 7.29374 12.06 7.35464 12.2308 7.46875C12.4016 7.58286 12.5347 7.74504 12.6133 7.9348C12.6919 8.12455 12.7124 8.33335 12.6724 8.53479C12.6323 8.73623 12.5334 8.92127 12.3882 9.0665C12.2429 9.21173 12.0579 9.31064 11.8564 9.35071C11.655 9.39078 11.4462 9.37021 11.2564 9.29161C11.0667 9.21301 10.9045 9.07991 10.7904 8.90914C10.6763 8.73836 10.6154 8.53759 10.6154 8.3322C10.6154 8.05678 10.7248 7.79265 10.9195 7.5979C11.1143 7.40315 11.3784 7.29374 11.6538 7.29374ZM12.6923 16.986C12.3251 16.986 11.9729 16.8402 11.7132 16.5805C11.4536 16.3208 11.3077 15.9687 11.3077 15.6014V12.1399C11.1241 12.1399 10.948 12.067 10.8182 11.9371C10.6883 11.8073 10.6154 11.6312 10.6154 11.4476C10.6154 11.264 10.6883 11.0879 10.8182 10.958C10.948 10.8282 11.1241 10.7553 11.3077 10.7553C11.6749 10.7553 12.0271 10.9012 12.2868 11.1608C12.5464 11.4205 12.6923 11.7727 12.6923 12.1399V15.6014C12.8759 15.6014 13.052 15.6744 13.1818 15.8042C13.3117 15.934 13.3846 16.1101 13.3846 16.2937C13.3846 16.4773 13.3117 16.6534 13.1818 16.7833C13.052 16.9131 12.8759 16.986 12.6923 16.986Z" fill="#C4CBD5"/>
</svg>
